<?xml version="1.0" encoding="UTF-8"?>
<svg width="12.982233px" height="14px" viewBox="0 0 12.982233 14" version="1.1" xmlns="http://www.w3.org/2000/svg" xmlns:xlink="http://www.w3.org/1999/xlink">
    <title>0.图标/线性/指令</title>
    <defs>
        <linearGradient x1="31.4909728%" y1="23.5681592%" x2="94.8933615%" y2="89.7266001%" id="linearGradient-1">
            <stop stop-color="#FF00FA" offset="0%"></stop>
            <stop stop-color="#0061FF" offset="47.495083%"></stop>
            <stop stop-color="#00C8FF" offset="100%"></stop>
        </linearGradient>
    </defs>
    <g id="锅炉/空压/OCR" stroke="none" stroke-width="1" fill="none" fill-rule="evenodd">
        <g id="智能能力研发_方案详情" transform="translate(-636.500000, -745.000000)">
            <g id="编组-101" transform="translate(619.000000, 104.000000)">
                <g id="编组-35" transform="translate(0.000000, 622.000000)">
                    <g id="1.操作与导航/1.按钮/单一按钮/1.品牌/1级/Active备份-4" transform="translate(16.000000, 17.000000)">
                        <g id="0.图标/线性/指令" transform="translate(0.000000, 1.000000)">
                            <rect id="bg" fill-opacity="0" fill="#FFFFFF" x="0" y="0" width="16" height="16"></rect>
                            <path d="M11.6390873,2.48959236 L13.7604076,4.6109127 C13.9556698,4.80617485 13.9556698,5.12275734 13.7604076,5.31801948 L5.27512627,13.8033009 C5.07986412,13.998563 4.76328163,13.998563 4.56801948,13.8033009 L2.44669914,11.6819805 C2.251437,11.4867184 2.251437,11.1701359 2.44669914,10.9748737 L10.9319805,2.48959236 C11.1272427,2.29433021 11.4438252,2.29433021 11.6390873,2.48959236 Z M9.30975253,5.52564575 L3.50763736,11.3280736 L4.92185092,12.7422871 L10.7237525,6.93964575 L9.30975253,5.52564575 Z M11.285812,3.54989898 L10.0167525,4.81864575 L11.4307525,6.23264575 L12.7000255,4.96411254 L11.285812,3.54989898 Z" id="形状" fill="url(#linearGradient-1)" fill-rule="nonzero"></path>
                            <path d="M10.1286797,12.5 L10.1727193,12.8419053 C10.2308062,13.292867 10.5858127,13.6478735 11.0367744,13.7059603 L11.3786797,13.75 L11.0367744,13.7940397 C10.5858127,13.8521265 10.2308062,14.207133 10.1727193,14.6580947 L10.1286797,15 L10.08464,14.6580947 C10.0265532,14.207133 9.67154661,13.8521265 9.22058494,13.7940397 L8.87867966,13.75 L9.22058494,13.7059603 C9.67154661,13.6478735 10.0265532,13.292867 10.08464,12.8419053 L10.1286797,12.5 Z" id="路径" fill="url(#linearGradient-1)" fill-rule="nonzero"></path>
                            <path d="M12.982233,8.25 L13.0390955,8.52629607 C13.159936,9.11346252 13.6187705,9.57229702 14.205937,9.6931375 L14.482233,9.75 L14.205937,9.8068625 C13.6187705,9.92770298 13.159936,10.3865375 13.0390955,10.9737039 L12.982233,11.25 L12.9253705,10.9737039 C12.8045301,10.3865375 12.3456956,9.92770298 11.7585291,9.8068625 L11.482233,9.75 L11.7585291,9.6931375 C12.3456956,9.57229702 12.8045301,9.11346252 12.9253705,8.52629607 L12.982233,8.25 Z" id="路径" fill="url(#linearGradient-1)" fill-rule="nonzero"></path>
                            <path d="M4.25,1 L4.38744007,1.6678242 C4.58884088,2.64643495 5.35356505,3.41115912 6.3321758,3.61255993 L7,3.75 L6.3321758,3.88744007 C5.35356505,4.08884088 4.58884088,4.85356505 4.38744007,5.8321758 L4.25,6.5 L4.11255993,5.8321758 C3.91115912,4.85356505 3.14643495,4.08884088 2.1678242,3.88744007 L1.5,3.75 L2.1678242,3.61255993 C3.14643495,3.41115912 3.91115912,2.64643495 4.11255993,1.6678242 L4.25,1 Z" id="路径" fill="url(#linearGradient-1)" fill-rule="nonzero"></path>
                        </g>
                    </g>
                </g>
            </g>
        </g>
    </g>
</svg>
